<?xml version="1.0" encoding="UTF-8" standalone="no"?>
<!-- Generator: Adobe Illustrator 15.0.0, SVG Export Plug-In . SVG Version: 6.00 Build 0)  -->

<svg
   xmlns:dc="http://purl.org/dc/elements/1.1/"
   xmlns:cc="http://creativecommons.org/ns#"
   xmlns:rdf="http://www.w3.org/1999/02/22-rdf-syntax-ns#"
   xmlns:svg="http://www.w3.org/2000/svg"
   xmlns="http://www.w3.org/2000/svg"
   xmlns:sodipodi="http://sodipodi.sourceforge.net/DTD/sodipodi-0.dtd"
   xmlns:inkscape="http://www.inkscape.org/namespaces/inkscape"
   version="1.1"
   id="Layer_1"
   x="0px"
   y="0px"
   width="512px"
   height="512px"
   viewBox="0 0 512 512"
   enable-background="new 0 0 512 512"
   xml:space="preserve"
   sodipodi:docname="Flo4FloSol1_noshadow.svg"
   inkscape:version="0.92.1 unknown"><metadata
     id="metadata4665"><rdf:RDF><cc:Work
         rdf:about=""><dc:format>image/svg+xml</dc:format><dc:type
           rdf:resource="http://purl.org/dc/dcmitype/StillImage" /><dc:title></dc:title></cc:Work></rdf:RDF></metadata><defs
     id="defs4663" /><sodipodi:namedview
     pagecolor="#ffffff"
     bordercolor="#666666"
     borderopacity="1"
     objecttolerance="10"
     gridtolerance="10"
     guidetolerance="10"
     inkscape:pageopacity="0"
     inkscape:pageshadow="2"
     inkscape:window-width="1600"
     inkscape:window-height="849"
     id="namedview4661"
     showgrid="false"
     inkscape:zoom="1.3027344"
     inkscape:cx="256"
     inkscape:cy="256"
     inkscape:window-x="0"
     inkscape:window-y="0"
     inkscape:window-maximized="1"
     inkscape:current-layer="Layer_1" /><linearGradient
     id="SVGID_1_"
     gradientUnits="userSpaceOnUse"
     x1="337.4336"
     y1="263.5859"
     x2="394.418"
     y2="263.5859"><stop
       offset="0"
       style="stop-color:#2583A6"
       id="stop4615" /><stop
       offset="0.5"
       style="stop-color:#257EA3"
       id="stop4617" /><stop
       offset="1"
       style="stop-color:#237AA0"
       id="stop4619" /></linearGradient><polygon
     points="337.434,222.882 351.623,222.882 351.623,291.387 394.418,291.387 394.418,304.29   337.434,304.29 "
     id="polygon4622"
     fill="url(#SVGID_1_)" /><linearGradient
     id="SVGID_2_"
     gradientUnits="userSpaceOnUse"
     x1="405.8164"
     y1="263.5859"
     x2="490.9492"
     y2="263.5859"><stop
       offset="0"
       style="stop-color:#2583A6"
       id="stop4624" /><stop
       offset="0.5"
       style="stop-color:#257EA3"
       id="stop4626" /><stop
       offset="1"
       style="stop-color:#237AA0"
       id="stop4628" /></linearGradient><path
     fill="url(#SVGID_2_)"
     d="M448.267,305.687c-6.278,0-12.015-1.107-17.215-3.312c-5.189-2.209-9.647-5.215-13.372-9.017  c-3.723-3.797-6.629-8.232-8.72-13.318c-2.098-5.078-3.144-10.482-3.144-16.224v-0.232c0-5.744,1.046-11.143,3.144-16.226  c2.091-5.083,5.036-9.53,8.834-13.373c3.802-3.836,8.299-6.884,13.497-9.134c5.192-2.238,10.929-3.367,17.211-3.367  c6.276,0,12.017,1.106,17.209,3.312c5.197,2.211,9.653,5.217,13.374,9.018c3.724,3.799,6.632,8.233,8.724,13.311  c2.094,5.081,3.141,10.489,3.141,16.228v0.233c0,5.733-1.047,11.143-3.141,16.218c-2.093,5.082-5.038,9.544-8.838,13.382  c-3.8,3.842-8.295,6.882-13.49,9.12C460.286,304.561,454.549,305.687,448.267,305.687 M448.502,292.545  c4.013,0,7.694-0.757,11.065-2.272c3.354-1.506,6.222-3.564,8.627-6.162c2.383-2.595,4.269-5.641,5.603-9.126  c1.356-3.491,2.036-7.213,2.036-11.168v-0.232c0-3.952-0.68-7.692-2.036-11.222c-1.333-3.529-3.237-6.593-5.663-9.19  c-2.44-2.591-5.352-4.673-8.743-6.224c-3.406-1.55-7.107-2.323-11.124-2.323c-4.013,0-7.691,0.752-11.063,2.269  c-3.356,1.509-6.226,3.563-8.627,6.159c-2.388,2.601-4.268,5.649-5.602,9.141c-1.355,3.486-2.036,7.206-2.036,11.16v0.233  c0,3.956,0.679,7.69,2.036,11.222c1.334,3.527,3.232,6.594,5.658,9.188c2.444,2.598,5.352,4.672,8.743,6.218  C440.787,291.769,444.485,292.545,448.502,292.545z"
     id="path4631" /><linearGradient
     id="SVGID_3_"
     gradientUnits="userSpaceOnUse"
     x1="261.1416"
     y1="281.2617"
     x2="316.3848"
     y2="281.2617"><stop
       offset="0"
       style="stop-color:#2583A6"
       id="stop4633" /><stop
       offset="0.5"
       style="stop-color:#257EA3"
       id="stop4635" /><stop
       offset="1"
       style="stop-color:#237AA0"
       id="stop4637" /></linearGradient><polygon
     fill="url(#SVGID_3_)"
     points="261.142,258.232 261.142,304.29 275.331,304.29 275.331,271.142 316.385,271.142   316.385,258.232 275.331,258.232 "
     id="polygon4640" /><linearGradient
     id="SVGID_4_"
     gradientUnits="userSpaceOnUse"
     x1="291.3779"
     y1="235.7881"
     x2="291.3779"
     y2="222.8818"><stop
       offset="0"
       style="stop-color:#2583A6"
       id="stop4642" /><stop
       offset="0.5"
       style="stop-color:#257EA3"
       id="stop4644" /><stop
       offset="1"
       style="stop-color:#237AA0"
       id="stop4646" /></linearGradient><polygon
     fill="url(#SVGID_4_)"
     points="261.142,222.882 261.142,235.788 275.331,235.788 321.614,235.788 321.614,222.882 "
     id="polygon4649" /><linearGradient
     id="SVGID_5_"
     gradientUnits="userSpaceOnUse"
     x1="125.481"
     y1="341.001"
     x2="125.4809"
     y2="128.0557"><stop
       offset="0"
       style="stop-color:#2583A6"
       id="stop4651" /><stop
       offset="0.5"
       style="stop-color:#257EA3"
       id="stop4653" /><stop
       offset="1"
       style="stop-color:#237AA0"
       id="stop4655" /></linearGradient><path
     d="M125.48,279.727c-12.005,15.862-12.005,31.461,0,46.797  C137.49,311.188,137.489,295.589,125.48,279.727 M125.48,150.235c-27.559,34.767-27.559,70.133,0,106.11  C153.046,220.368,153.044,185.001,125.48,150.235z M63.056,305.198c10.16-23.092,31.445-34.488,55.214-34.201  c-30.157-31.295-56.351-43.908-78.58-37.818c2.954,17.255,14.956,31.917,35.999,43.997c-24.212-7.645-42.428-26.137-54.639-55.478  c36.328-6.171,64.932,2.785,85.813,26.846c-19.041-40.714-12.841-80.876,18.615-120.489c31.459,39.613,37.663,79.774,18.622,120.489  c20.883-24.062,49.485-33.018,85.812-26.846c-12.211,29.341-30.423,47.834-54.637,55.478c21.044-12.08,33.042-26.742,35.999-43.997  c-22.23-6.089-48.425,6.524-78.581,37.818c23.77-0.287,45.053,11.11,55.215,34.201c-17.962,4.017-32.733,1.268-44.307-8.254  c12.642,6.396,23.558,7.348,32.737,2.861c-4.021-12.157-21.792-20.554-44.521-25.198c12.966,22.459,10.855,44.594-6.338,66.394  c-17.188-21.8-19.298-43.935-6.334-66.394c-22.727,4.645-40.5,13.041-44.519,25.198c9.179,4.485,20.091,3.535,32.737-2.861  C95.788,306.466,81.018,309.215,63.056,305.198z"
     id="path4658"
     fill="url(#SVGID_5_)" /></svg>