<?xml version="1.0" encoding="UTF-8"?>
<svg width="4819px" height="512px" viewBox="0 0 4819 512" version="1.1" xmlns="http://www.w3.org/2000/svg" xmlns:xlink="http://www.w3.org/1999/xlink">
    <!-- Generator: Sketch 48.1 (47250) - http://www.bohemiancoding.com/sketch -->
    <title>dark_alexandria_wordmark</title>
    <desc>Created with Sketch.</desc>
    <defs>
        <path d="M4144.73545,22.4561404 L4187.46753,22.4561404 L4187.46753,471.578947 L4144.73545,471.578947 L4144.73545,22.4561404 L4144.73545,22.4561404 Z M3795.08294,258.511312 L3923.8811,471.578947 L3972.44029,471.578947 L3839.06438,255.898504 C3851.58193,254.206883 3864.74673,251.246595 3878.55918,247.017544 C3892.37164,242.788493 3904.99693,236.339291 3916.43535,227.669739 C3927.87381,219.000189 3937.36974,207.687651 3944.92341,193.731787 C3952.47711,179.775924 3956.2539,162.014183 3956.2539,140.44603 C3956.2539,120.992403 3953.01666,104.499357 3946.54206,90.9663991 C3940.06748,77.4334409 3931.86643,66.2266279 3921.93873,57.345624 C3912.01103,48.46462 3900.78858,41.6982425 3888.27102,37.0462881 C3875.75347,32.3943336 3863.45195,29.0111448 3851.36604,26.8966201 C3839.28012,24.7820954 3828.05768,23.5133995 3817.69834,23.0904946 C3807.339,22.6675897 3799.13797,22.4561404 3793.09501,22.4561404 L3672.66822,22.4561404 L3672.66822,471.578947 L3715.4003,471.578947 L3715.4003,258.435921 L3715.43255,258.435921 L3715.43255,220.374666 L3715.4003,220.374666 L3715.4003,60.5173952 L3806.04413,60.5173952 C3828.48938,60.5173952 3846.72587,63.266236 3860.75415,68.7640005 C3874.78242,74.2617648 3885.68116,81.0281425 3893.45067,89.0633364 C3901.22018,97.0985302 3906.50769,105.767952 3909.31334,115.071861 C3912.11901,124.375769 3913.52181,132.833741 3913.52181,140.44603 C3913.52181,148.05832 3912.11901,156.516292 3909.31334,165.8202 C3906.50769,175.124109 3901.22018,183.793531 3893.45067,191.828724 C3885.68116,199.863919 3874.78242,206.630297 3860.75415,212.12806 C3846.72587,217.625825 3828.48938,220.374666 3806.04413,220.374666 L3795.08294,220.374666 L3795.08294,258.511312 L3795.08294,258.511312 Z M3098.95041,22.4561404 L3240.74326,22.4561404 C3280.45407,22.4561404 3314.12144,27.2137496 3341.74636,36.7291109 C3369.37128,46.2444723 3392.35575,58.4028071 3410.70042,73.2044802 C3429.04509,88.0061534 3443.50481,104.393474 3454.07996,122.366934 C3464.65512,140.340395 3472.42452,157.573513 3477.38838,174.066806 C3482.35222,190.560099 3485.48158,205.467274 3486.77648,218.788781 C3488.07139,232.110285 3488.71885,241.519779 3488.71885,247.017544 C3488.71885,252.515308 3488.07139,261.924803 3486.77648,275.246308 C3485.48158,288.567814 3482.35222,303.474991 3477.38838,319.968282 C3472.42452,336.461574 3464.65512,353.694694 3454.07996,371.668154 C3443.50481,389.641615 3429.04509,406.028934 3410.70042,420.830608 C3392.35575,435.632283 3369.37128,447.790615 3341.74636,457.305977 C3314.12144,466.821339 3280.45407,471.578947 3240.74326,471.578947 L3098.95041,471.578947 L3098.95041,22.4561404 L3098.95041,22.4561404 Z M3141.6825,433.517693 L3229.7365,433.517693 C3259.95126,433.517693 3288.22321,429.81733 3314.55322,422.416494 C3340.88323,415.015656 3363.75978,403.703121 3383.18354,388.478542 C3402.60731,373.253963 3417.9303,353.906351 3429.15291,330.435127 C3440.37555,306.963903 3445.98677,279.15832 3445.98677,247.017544 C3445.98677,214.876768 3440.37555,187.071185 3429.15291,163.599961 C3417.9303,140.128736 3402.60731,120.781125 3383.18354,105.556547 C3363.75978,90.3319686 3340.88323,79.0194311 3314.55322,71.6185946 C3288.22321,64.217758 3259.95126,60.5173952 3229.7365,60.5173952 L3141.6825,60.5173952 L3141.6825,433.517693 L3141.6825,433.517693 Z M2512.93095,22.4561404 L2567.9647,22.4561404 L2847.01818,415.755775 L2848.3131,415.755775 L2848.3131,22.4561404 L2891.04518,22.4561404 L2891.04518,471.578947 L2836.01143,471.578947 L2556.95795,78.2793142 L2555.66304,78.2793142 L2555.66304,471.578947 L2512.93095,471.578947 L2512.93095,22.4561404 L2512.93095,22.4561404 Z M2312.21353,471.578947 L2358.76456,471.578947 L2165.82269,22.4561404 L2121.7957,22.4561404 L1921.73183,471.578947 L1965.7802,471.578947 L2141.95539,68.7233256 L2312.21353,471.578947 L2312.21353,471.578947 Z M1607.64383,235.599167 L1450.95951,22.4561404 L1501.46107,22.4561404 L1633.54206,205.150164 L1763.6807,22.4561404 L1814.8297,22.4561404 L1659.44029,235.599167 L1829.7212,471.578947 L1776.62981,471.578947 L1631.59969,268.585588 L1486.56958,471.578947 L1435.42056,471.578947 L1607.64383,235.599167 L1607.64383,235.599167 Z M1069.08655,22.4561404 L1305.85749,22.4561404 L1305.85749,60.5173952 L1069.08655,60.5173952 L1069.08655,22.4561404 L1069.08655,22.4561404 Z M1290.96601,220.374666 L1290.96601,258.435921 L1069.08655,258.435921 L1069.08655,220.374666 L1290.96601,220.374666 Z M1069.08655,433.517693 L1316.21678,433.517693 L1316.21678,471.578947 L1069.08655,471.578947 L1069.08655,433.517693 L1069.08655,433.517693 Z M613.655257,22.4561404 L656.387345,22.4561404 L656.387345,433.517693 L870.047785,433.517693 L870.047785,471.578947 L613.655257,471.578947 L613.655257,22.4561404 L613.655257,22.4561404 Z M459.48886,471.578947 L266.547007,22.4561404 L222.520007,22.4561404 L22.4561404,471.578947 L67.130596,471.578947 L118.927067,352.320349 L207.741334,148.421189 L242.59114,68.1296462 L346.18408,314.259094 L411.826229,471.578947 L459.48886,471.578947 Z M4731.60874,471.578947 L4778.66667,471.578947 L4585.72482,22.4561404 L4541.69782,22.4561404 L4341.63395,471.578947 L4386.30841,471.578947 L4438.10487,352.320349 L4438.61505,352.320349 L4561.85473,69.1205078 L4731.60874,471.578947 L4731.60874,471.578947 Z" id="path-1"></path>
        <filter x="-0.9%" y="-9.4%" width="102.1%" height="122.7%" filterUnits="objectBoundingBox" id="filter-2">
            <feOffset dx="9" dy="9" in="SourceAlpha" result="shadowOffsetOuter1"></feOffset>
            <feGaussianBlur stdDeviation="15.5" in="shadowOffsetOuter1" result="shadowBlurOuter1"></feGaussianBlur>
            <feColorMatrix values="0 0 0 0 0   0 0 0 0 0   0 0 0 0 0  0 0 0 0.5 0" type="matrix" in="shadowBlurOuter1"></feColorMatrix>
        </filter>
    </defs>
    <g id="Page-1" stroke="none" stroke-width="1" fill="none" fill-rule="evenodd">
        <g id="dark_alexandria_wordmark">
            <g id="wordmark">
                <use fill="black" fill-opacity="1" filter="url(#filter-2)" xlink:href="#path-1"></use>
                <use fill="#4A4A4A" fill-rule="evenodd" xlink:href="#path-1"></use>
            </g>
        </g>
    </g>
</svg>