<?xml version="1.0" encoding="UTF-8"?>
<svg width="3920px" height="1644px" viewBox="0 0 3920 1644" version="1.1" xmlns="http://www.w3.org/2000/svg" xmlns:xlink="http://www.w3.org/1999/xlink">
    <!-- Generator: Sketch 48.1 (47250) - http://www.bohemiancoding.com/sketch -->
    <title>dark_alexandria_bookmark_and_wordmark_2</title>
    <desc>Created with Sketch.</desc>
    <defs>
        <path d="M3371.92073,1244 L3406.70864,1244 L3406.70864,1609.5914 L3371.92073,1609.5914 L3371.92073,1244 L3371.92073,1244 Z M3087.2709,1436.15177 L3192.12464,1609.5914 L3231.65636,1609.5914 L3123.0759,1434.02491 C3133.26636,1432.64791 3143.98374,1430.2382 3155.22836,1426.7957 C3166.47299,1423.3532 3176.75116,1418.10347 3186.06311,1411.04635 C3195.37508,1403.98923 3203.10565,1394.78069 3209.25505,1383.42045 C3215.40447,1372.06021 3218.47912,1357.60193 3218.47912,1340.0452 C3218.47912,1324.20971 3215.84371,1310.78417 3210.57278,1299.76818 C3205.30186,1288.75219 3198.62545,1279.62971 3190.54337,1272.40046 C3182.46129,1265.17122 3173.32517,1259.6633 3163.1347,1255.87656 C3152.94425,1252.08981 3142.92966,1249.33585 3133.0906,1247.6146 C3123.25154,1245.89336 3114.11541,1244.86062 3105.68194,1244.51637 C3097.24848,1244.17212 3090.57207,1244 3085.65253,1244 L2987.61387,1244 L2987.61387,1609.5914 L3022.40178,1609.5914 L3022.40178,1436.0904 L3022.42803,1436.0904 L3022.42803,1405.10807 L3022.40178,1405.10807 L3022.40178,1274.98232 L3096.19433,1274.98232 C3114.46686,1274.98232 3129.31307,1277.21991 3140.7334,1281.69516 C3152.15373,1286.1704 3161.02632,1291.67832 3167.35143,1298.21906 C3173.67653,1304.75981 3177.98106,1311.81682 3180.26512,1319.39032 C3182.5492,1326.96381 3183.69121,1333.8487 3183.69121,1340.0452 C3183.69121,1346.24169 3182.5492,1353.12658 3180.26512,1360.70008 C3177.98106,1368.27357 3173.67653,1375.33059 3167.35143,1381.87133 C3161.02632,1388.41208 3152.15373,1393.91999 3140.7334,1398.39524 C3129.31307,1402.87048 3114.46686,1405.10807 3096.19433,1405.10807 L3087.2709,1405.10807 L3087.2709,1436.15177 L3087.2709,1436.15177 Z M2520.55394,1244 L2635.98657,1244 C2668.31489,1244 2695.72328,1247.87275 2718.21254,1255.61837 C2740.70181,1263.36399 2759.41332,1273.26102 2774.34759,1285.30976 C2789.28187,1297.3585 2801.05343,1310.69798 2809.66259,1325.32859 C2818.27176,1339.95921 2824.59678,1353.98718 2828.63782,1367.41292 C2832.67886,1380.83866 2835.22645,1392.97328 2836.28062,1403.81714 C2837.3348,1414.66101 2837.86189,1422.32045 2837.86189,1426.7957 C2837.86189,1431.27095 2837.3348,1438.93039 2836.28062,1449.77425 C2835.22645,1460.61812 2832.67886,1472.75274 2828.63782,1486.17848 C2824.59678,1499.60422 2818.27176,1513.63219 2809.66259,1528.2628 C2801.05343,1542.89342 2789.28187,1556.23289 2774.34759,1568.28164 C2759.41332,1580.33038 2740.70181,1590.22741 2718.21254,1597.97303 C2695.72328,1605.71865 2668.31489,1609.5914 2635.98657,1609.5914 L2520.55394,1609.5914 L2520.55394,1244 L2520.55394,1244 Z M2555.34186,1578.60908 L2627.02605,1578.60908 C2651.62369,1578.60908 2674.6397,1575.59694 2696.07478,1569.57257 C2717.50987,1563.54819 2736.13352,1554.33965 2751.94628,1541.94666 C2767.75904,1529.55367 2780.23339,1513.80448 2789.36964,1494.69862 C2798.50592,1475.59276 2803.07398,1452.95868 2803.07398,1426.7957 C2803.07398,1400.63272 2798.50592,1377.99864 2789.36964,1358.89278 C2780.23339,1339.78692 2767.75904,1324.03773 2751.94628,1311.64474 C2736.13352,1299.25175 2717.50987,1290.0432 2696.07478,1284.01883 C2674.6397,1277.99446 2651.62369,1274.98232 2627.02605,1274.98232 L2555.34186,1274.98232 L2555.34186,1578.60908 L2555.34186,1578.60908 Z M2043.47931,1244 L2088.28194,1244 L2315.45756,1564.15066 L2316.51174,1564.15066 L2316.51174,1244 L2351.29964,1244 L2351.29964,1609.5914 L2306.49703,1609.5914 L2079.32141,1289.44074 L2078.26723,1289.44074 L2078.26723,1609.5914 L2043.47931,1609.5914 L2043.47931,1244 L2043.47931,1244 Z M1880.07657,1609.5914 L1917.97346,1609.5914 L1760.90075,1244 L1725.05866,1244 L1562.18796,1609.5914 L1598.04746,1609.5914 L1741.47053,1281.66205 L1880.07657,1609.5914 L1880.07657,1609.5914 Z M1306.49097,1417.501 L1178.93528,1244 L1220.04828,1244 L1327.57455,1392.71515 L1433.51957,1244 L1475.15964,1244 L1348.65813,1417.501 L1487.28271,1609.5914 L1444.06135,1609.5914 L1325.99328,1444.35235 L1207.92521,1609.5914 L1166.28513,1609.5914 L1306.49097,1417.501 L1306.49097,1417.501 Z M868.055001,1244 L1060.80868,1244 L1060.80868,1274.98232 L868.055001,1274.98232 L868.055001,1244 L868.055001,1244 Z M1048.68562,1405.10807 L1048.68562,1436.0904 L868.055001,1436.0904 L868.055001,1405.10807 L1048.68562,1405.10807 Z M868.055001,1578.60908 L1069.24211,1578.60908 L1069.24211,1609.5914 L868.055001,1609.5914 L868.055001,1578.60908 L868.055001,1578.60908 Z M497.291349,1244 L532.079264,1244 L532.079264,1578.60908 L706.018836,1578.60908 L706.018836,1609.5914 L497.291349,1609.5914 L497.291349,1244 L497.291349,1244 Z M371.785489,1609.5914 L214.712784,1244 L178.87069,1244 L16,1609.5914 L52.3691832,1609.5914 L94.5363526,1512.51346 L166.839469,1346.53707 L195.210469,1281.17879 L279.544806,1481.53113 L332.983652,1609.5914 L371.785489,1609.5914 Z M3849.69045,1609.5914 L3888,1609.5914 L3730.9273,1244 L3695.08521,1244 L3532.21451,1609.5914 L3568.5837,1609.5914 L3610.75086,1512.51346 L3611.16619,1512.51346 L3711.49482,1281.98536 L3849.69045,1609.5914 L3849.69045,1609.5914 Z" id="path-1"></path>
        <filter x="-0.8%" y="-8.8%" width="102.1%" height="121.9%" filterUnits="objectBoundingBox" id="filter-2">
            <feOffset dx="8" dy="8" in="SourceAlpha" result="shadowOffsetOuter1"></feOffset>
            <feGaussianBlur stdDeviation="12" in="shadowOffsetOuter1" result="shadowBlurOuter1"></feGaussianBlur>
            <feColorMatrix values="0 0 0 0 0   0 0 0 0 0   0 0 0 0 0  0 0 0 0.5 0" type="matrix" in="shadowBlurOuter1"></feColorMatrix>
        </filter>
        <path d="M1718.93754,61.8349974 L1718.93754,61.8138947 C1718.93754,61.8138947 1720.57549,60.9940348 1723.6841,59.5567066 C1789.69739,28.2695288 1863.10029,10.0269656 1940.56174,8.15917489 C1944.52224,8.05420511 1948.50425,8 1952.50494,8 C1952.70571,8 1952.90644,8.00013652 1953.10713,8.00040913 C1953.33066,8.0001364 1953.5542,8 1953.77778,8 C2250.78424,8 2491.55556,248.707124 2491.55556,545.634409 C2491.55556,842.561693 2250.78424,1083.26882 1953.77778,1083.26882 C1656.77131,1083.26882 1416,842.561693 1416,545.634409 C1416,332.886114 1539.60519,148.999662 1718.9375,61.8350152 Z M1718.93754,110.462505 C1564.31392,194.036383 1459.27679,357.572298 1459.27679,545.634409 C1459.27679,818.666953 1680.67242,1040.00356 1953.77778,1040.00356 C2226.88313,1040.00356 2448.27876,818.666953 2448.27876,545.634409 C2448.27876,356.542061 2342.08766,192.245361 2186.07239,109.096215 L2186.07232,780.412038 L1952.50493,544.619595 L1718.93754,780.412038 L1718.93754,110.462505 Z" id="path-3"></path>
        <filter x="-2.6%" y="-1.9%" width="105.2%" height="105.2%" filterUnits="objectBoundingBox" id="filter-4">
            <feOffset dx="0" dy="8" in="SourceAlpha" result="shadowOffsetOuter1"></feOffset>
            <feGaussianBlur stdDeviation="8" in="shadowOffsetOuter1" result="shadowBlurOuter1"></feGaussianBlur>
            <feColorMatrix values="0 0 0 0 0   0 0 0 0 0   0 0 0 0 0  0 0 0 0.5 0" type="matrix" in="shadowBlurOuter1"></feColorMatrix>
        </filter>
    </defs>
    <g id="Page-1" stroke="none" stroke-width="1" fill="none" fill-rule="evenodd">
        <g id="dark_alexandria_bookmark_and_wordmark_2">
            <g id="1_alexandria_wordmark_dark_900X85">
                <use fill="black" fill-opacity="1" filter="url(#filter-2)" xlink:href="#path-1"></use>
                <use fill="#4A4A4A" fill-rule="evenodd" xlink:href="#path-1"></use>
            </g>
            <g id="bookmark">
                <use fill="black" fill-opacity="1" filter="url(#filter-4)" xlink:href="#path-3"></use>
                <use fill="" fill-rule="evenodd" xlink:href="#path-3"></use>
            </g>
        </g>
    </g>
</svg>