<?xml version="1.0" encoding="UTF-8"?>
<svg width="4819px" height="512px" viewBox="0 0 4819 512" version="1.1" xmlns="http://www.w3.org/2000/svg" xmlns:xlink="http://www.w3.org/1999/xlink">
    <!-- Generator: Sketch 48.1 (47250) - http://www.bohemiancoding.com/sketch -->
    <title>light_alexandria_wordmark</title>
    <desc>Created with Sketch.</desc>
    <defs>
        <path d="M4144.66001,22.4557316 L4187.39131,22.4557316 L4187.39131,471.570363 L4144.66001,471.570363 L4144.66001,22.4557316 L4144.66001,22.4557316 Z M3795.01386,258.506607 L3923.80968,471.570363 L3972.36798,471.570363 L3838.9945,255.893846 C3851.51182,254.202256 3864.67639,251.242021 3878.48858,247.013048 C3892.30079,242.784074 3904.92585,236.334989 3916.36407,227.665595 C3927.80231,218.996202 3937.29807,207.68387 3944.8516,193.728261 C3952.40517,179.772651 3956.18189,162.011234 3956.18189,140.443474 C3956.18189,120.9902 3952.9447,104.497455 3946.47022,90.9647433 C3939.99576,77.4320315 3931.79487,66.2254225 3921.86734,57.3445801 C3911.93982,48.4637378 3900.71757,41.6974835 3888.20024,37.0456137 C3875.68292,32.393744 3863.38162,29.0106167 3851.29593,26.8961305 C3839.21024,24.7816443 3827.988,23.5129715 3817.62885,23.0900743 C3807.2697,22.667177 3799.06882,22.4557316 3793.02596,22.4557316 L3672.60137,22.4557316 L3672.60137,471.570363 L3715.33267,471.570363 L3715.33267,258.431217 L3715.36492,258.431217 L3715.36492,220.370654 L3715.33267,220.370654 L3715.33267,60.5162937 L3805.97485,60.5162937 C3828.41969,60.5162937 3846.65585,63.2650844 3860.68388,68.7627488 C3874.71189,74.260413 3885.61043,81.0266676 3893.3798,89.0617152 C3901.14917,97.0967628 3906.43658,105.766027 3909.24218,115.069766 C3912.0478,124.373505 3913.45057,132.831323 3913.45057,140.443474 C3913.45057,148.055624 3912.0478,156.513443 3909.24218,165.817182 C3906.43658,175.120921 3901.14917,183.790186 3893.3798,191.825233 C3885.61043,199.860281 3874.71189,206.626535 3860.68388,212.124199 C3846.65585,217.621864 3828.41969,220.370654 3805.97485,220.370654 L3795.01386,220.370654 L3795.01386,258.506607 L3795.01386,258.506607 Z M3098.894,22.4557316 L3240.68427,22.4557316 C3280.39436,22.4557316 3314.06112,27.2132543 3341.68554,36.7284424 C3369.30995,46.2436305 3392.294,58.401744 3410.63834,73.2031477 C3428.98268,88.0045515 3443.44213,104.391574 3454.01709,122.364707 C3464.59206,140.33784 3472.36131,157.570645 3477.32508,174.063637 C3482.28883,190.55663 3485.41814,205.463534 3486.71301,218.784798 C3488.0079,232.106061 3488.65535,241.515383 3488.65535,247.013048 C3488.65535,252.510711 3488.0079,261.920035 3486.71301,275.241297 C3485.41814,288.562561 3482.28883,303.469467 3477.32508,319.962458 C3472.36131,336.45545 3464.59206,353.688255 3454.01709,371.661389 C3443.44213,389.634523 3428.98268,406.021543 3410.63834,420.822947 C3392.294,435.624353 3369.30995,447.782464 3341.68554,457.297653 C3314.06112,466.812842 3280.39436,471.570363 3240.68427,471.570363 L3098.894,471.570363 L3098.894,22.4557316 L3098.894,22.4557316 Z M3141.62532,433.509802 L3229.67771,433.509802 C3259.89193,433.509802 3288.16336,429.809506 3314.49289,422.408805 C3340.82241,415.008102 3363.69855,403.695773 3383.12196,388.471471 C3402.54537,373.247169 3417.86809,353.899909 3429.09049,330.429113 C3440.31293,306.958316 3445.92404,279.153239 3445.92404,247.013048 C3445.92404,214.872857 3440.31293,187.06778 3429.09049,163.596983 C3417.86809,140.126185 3402.54537,120.778926 3383.12196,105.554625 C3363.69855,90.3303244 3340.82241,79.0179927 3314.49289,71.617291 C3288.16336,64.2165891 3259.89193,60.5162937 3229.67771,60.5162937 L3141.62532,60.5162937 L3141.62532,433.509802 L3141.62532,433.509802 Z M2512.8852,22.4557316 L2567.91796,22.4557316 L2846.96636,415.748207 L2848.26125,415.748207 L2848.26125,22.4557316 L2890.99255,22.4557316 L2890.99255,471.570363 L2835.95981,471.570363 L2556.91141,78.2778893 L2555.61652,78.2778893 L2555.61652,471.570363 L2512.8852,471.570363 L2512.8852,22.4557316 L2512.8852,22.4557316 Z M2312.17144,471.570363 L2358.72162,471.570363 L2165.78327,22.4557316 L2121.75708,22.4557316 L1921.69685,471.570363 L1965.74442,471.570363 L2141.9164,68.7220747 L2312.17144,471.570363 L2312.17144,471.570363 Z M1607.61457,235.594879 L1450.9331,22.4557316 L1501.43374,22.4557316 L1633.51233,205.14643 L1763.6486,22.4557316 L1814.79667,22.4557316 L1659.41009,235.594879 L1829.68789,471.570363 L1776.59747,471.570363 L1631.56999,268.580699 L1486.54252,471.570363 L1435.39443,471.570363 L1607.61457,235.594879 L1607.61457,235.594879 Z M1069.06709,22.4557316 L1305.83372,22.4557316 L1305.83372,60.5162937 L1069.06709,60.5162937 L1069.06709,22.4557316 L1069.06709,22.4557316 Z M1290.94251,220.370654 L1290.94251,258.431217 L1069.06709,258.431217 L1069.06709,220.370654 L1290.94251,220.370654 Z M1069.06709,433.509802 L1316.19283,433.509802 L1316.19283,471.570363 L1069.06709,471.570363 L1069.06709,433.509802 L1069.06709,433.509802 Z M613.644087,22.4557316 L656.375397,22.4557316 L656.375397,433.509802 L870.031948,433.509802 L870.031948,471.570363 L613.644087,471.570363 L613.644087,22.4557316 L613.644087,22.4557316 Z M459.480496,471.570363 L266.542155,22.4557316 L222.515956,22.4557316 L22.4557316,471.570363 L67.129374,471.570363 L118.924902,352.313936 L207.737553,148.418487 L242.586724,68.1284061 L346.177779,314.253374 L411.818733,471.570363 L459.480496,471.570363 Z M4731.52261,471.570363 L4778.57968,471.570363 L4585.64135,22.4557316 L4541.61515,22.4557316 L4341.55492,471.570363 L4386.22857,471.570363 L4438.02409,352.313936 L4438.53425,352.313936 L4561.7717,69.1192496 L4731.52261,471.570363 L4731.52261,471.570363 Z" id="path-1"></path>
        <filter x="-0.9%" y="-9.4%" width="102.1%" height="122.7%" filterUnits="objectBoundingBox" id="filter-2">
            <feOffset dx="9" dy="9" in="SourceAlpha" result="shadowOffsetOuter1"></feOffset>
            <feGaussianBlur stdDeviation="15.5" in="shadowOffsetOuter1" result="shadowBlurOuter1"></feGaussianBlur>
            <feColorMatrix values="0 0 0 0 0   0 0 0 0 0   0 0 0 0 0  0 0 0 0.5 0" type="matrix" in="shadowBlurOuter1"></feColorMatrix>
        </filter>
    </defs>
    <g id="Page-1" stroke="none" stroke-width="1" fill="none" fill-rule="evenodd">
        <g id="light_alexandria_wordmark">
            <g id="1_alexandria_wordmark_dark_900X85">
                <use fill="black" fill-opacity="1" filter="url(#filter-2)" xlink:href="#path-1"></use>
                <use fill="#FFFFFF" fill-rule="evenodd" xlink:href="#path-1"></use>
            </g>
        </g>
    </g>
</svg>