<?xml version="1.0" encoding="UTF-8"?>
<svg width="3920px" height="1640px" viewBox="0 0 3920 1640" version="1.1" xmlns="http://www.w3.org/2000/svg" xmlns:xlink="http://www.w3.org/1999/xlink">
    <!-- Generator: Sketch 48.1 (47250) - http://www.bohemiancoding.com/sketch -->
    <title>light_alexandria_bookmark_and_wordmark_2</title>
    <desc>Created with Sketch.</desc>
    <defs>
        <path d="M3355.92073,1234.4086 L3390.70864,1234.4086 L3390.70864,1600 L3355.92073,1600 L3355.92073,1234.4086 L3355.92073,1234.4086 Z M3071.2709,1426.56037 L3176.12464,1600 L3215.65636,1600 L3107.0759,1424.43351 C3117.26636,1423.05651 3127.98374,1420.6468 3139.22836,1417.2043 C3150.47299,1413.7618 3160.75116,1408.51207 3170.06311,1401.45495 C3179.37508,1394.39784 3187.10565,1385.18929 3193.25505,1373.82905 C3199.40447,1362.46881 3202.47912,1348.01054 3202.47912,1330.4538 C3202.47912,1314.61831 3199.84371,1301.19277 3194.57278,1290.17678 C3189.30186,1279.16079 3182.62545,1270.03831 3174.54337,1262.80906 C3166.46129,1255.57982 3157.32517,1250.07191 3147.1347,1246.28516 C3136.94425,1242.49841 3126.92966,1239.74446 3117.0906,1238.02321 C3107.25154,1236.30196 3098.11541,1235.26922 3089.68194,1234.92497 C3081.24848,1234.58072 3074.57207,1234.4086 3069.65253,1234.4086 L2971.61387,1234.4086 L2971.61387,1600 L3006.40178,1600 L3006.40178,1426.499 L3006.42803,1426.499 L3006.42803,1395.51668 L3006.40178,1395.51668 L3006.40178,1265.39092 L3080.19433,1265.39092 C3098.46686,1265.39092 3113.31307,1267.62851 3124.7334,1272.10376 C3136.15373,1276.57901 3145.02632,1282.08692 3151.35143,1288.62767 C3157.67653,1295.16841 3161.98106,1302.22542 3164.26512,1309.79892 C3166.5492,1317.37241 3167.69121,1324.2573 3167.69121,1330.4538 C3167.69121,1336.6503 3166.5492,1343.53519 3164.26512,1351.10868 C3161.98106,1358.68218 3157.67653,1365.73919 3151.35143,1372.27993 C3145.02632,1378.82068 3136.15373,1384.32859 3124.7334,1388.80384 C3113.31307,1393.27909 3098.46686,1395.51668 3080.19433,1395.51668 L3071.2709,1395.51668 L3071.2709,1426.56037 L3071.2709,1426.56037 Z M2504.55394,1234.4086 L2619.98657,1234.4086 C2652.31489,1234.4086 2679.72328,1238.28135 2702.21254,1246.02697 C2724.70181,1253.77259 2743.41332,1263.66962 2758.34759,1275.71836 C2773.28187,1287.76711 2785.05343,1301.10658 2793.66259,1315.7372 C2802.27176,1330.36781 2808.59678,1344.39578 2812.63782,1357.82152 C2816.67886,1371.24726 2819.22645,1383.38188 2820.28062,1394.22575 C2821.3348,1405.06961 2821.86189,1412.72905 2821.86189,1417.2043 C2821.86189,1421.67955 2821.3348,1429.33899 2820.28062,1440.18286 C2819.22645,1451.02672 2816.67886,1463.16135 2812.63782,1476.58708 C2808.59678,1490.01282 2802.27176,1504.04079 2793.66259,1518.67141 C2785.05343,1533.30202 2773.28187,1546.6415 2758.34759,1558.69024 C2743.41332,1570.73898 2724.70181,1580.63601 2702.21254,1588.38163 C2679.72328,1596.12725 2652.31489,1600 2619.98657,1600 L2504.55394,1600 L2504.55394,1234.4086 L2504.55394,1234.4086 Z M2539.34186,1569.01768 L2611.02605,1569.01768 C2635.62369,1569.01768 2658.6397,1566.00554 2680.07478,1559.98117 C2701.50987,1553.9568 2720.13352,1544.74826 2735.94628,1532.35526 C2751.75904,1519.96227 2764.23339,1504.21308 2773.36964,1485.10722 C2782.50592,1466.00136 2787.07398,1443.36728 2787.07398,1417.2043 C2787.07398,1391.04132 2782.50592,1368.40724 2773.36964,1349.30138 C2764.23339,1330.19552 2751.75904,1314.44633 2735.94628,1302.05334 C2720.13352,1289.66035 2701.50987,1280.45181 2680.07478,1274.42743 C2658.6397,1268.40306 2635.62369,1265.39092 2611.02605,1265.39092 L2539.34186,1265.39092 L2539.34186,1569.01768 L2539.34186,1569.01768 Z M2027.47931,1234.4086 L2072.28194,1234.4086 L2299.45756,1554.55926 L2300.51174,1554.55926 L2300.51174,1234.4086 L2335.29964,1234.4086 L2335.29964,1600 L2290.49703,1600 L2063.32141,1279.84934 L2062.26723,1279.84934 L2062.26723,1600 L2027.47931,1600 L2027.47931,1234.4086 L2027.47931,1234.4086 Z M1864.07657,1600 L1901.97346,1600 L1744.90075,1234.4086 L1709.05866,1234.4086 L1546.18796,1600 L1582.04746,1600 L1725.47053,1272.07065 L1864.07657,1600 L1864.07657,1600 Z M1290.49097,1407.9096 L1162.93528,1234.4086 L1204.04828,1234.4086 L1311.57455,1383.12375 L1417.51957,1234.4086 L1459.15964,1234.4086 L1332.65813,1407.9096 L1471.28271,1600 L1428.06135,1600 L1309.99328,1434.76095 L1191.92521,1600 L1150.28513,1600 L1290.49097,1407.9096 L1290.49097,1407.9096 Z M852.055001,1234.4086 L1044.80868,1234.4086 L1044.80868,1265.39092 L852.055001,1265.39092 L852.055001,1234.4086 L852.055001,1234.4086 Z M1032.68562,1395.51668 L1032.68562,1426.499 L852.055001,1426.499 L852.055001,1395.51668 L1032.68562,1395.51668 Z M852.055001,1569.01768 L1053.24211,1569.01768 L1053.24211,1600 L852.055001,1600 L852.055001,1569.01768 L852.055001,1569.01768 Z M481.291349,1234.4086 L516.079264,1234.4086 L516.079264,1569.01768 L690.018836,1569.01768 L690.018836,1600 L481.291349,1600 L481.291349,1234.4086 L481.291349,1234.4086 Z M355.785489,1600 L198.712784,1234.4086 L162.87069,1234.4086 L0,1600 L36.3691832,1600 L78.5363526,1502.92206 L150.839469,1336.94568 L179.210469,1271.58739 L263.544806,1471.93974 L316.983652,1600 L355.785489,1600 Z M3833.69045,1600 L3872,1600 L3714.9273,1234.4086 L3679.08521,1234.4086 L3516.21451,1600 L3552.5837,1600 L3594.75086,1502.92206 L3595.16619,1502.92206 L3695.49482,1272.39396 L3833.69045,1600 L3833.69045,1600 Z" id="path-1"></path>
        <filter x="-0.8%" y="-8.8%" width="102.1%" height="121.9%" filterUnits="objectBoundingBox" id="filter-2">
            <feOffset dx="8" dy="8" in="SourceAlpha" result="shadowOffsetOuter1"></feOffset>
            <feGaussianBlur stdDeviation="12" in="shadowOffsetOuter1" result="shadowBlurOuter1"></feGaussianBlur>
            <feColorMatrix values="0 0 0 0 0   0 0 0 0 0   0 0 0 0 0  0 0 0 0.5 0" type="matrix" in="shadowBlurOuter1"></feColorMatrix>
        </filter>
        <path d="M1701.15976,53.8349974 L1701.15976,53.8138947 C1701.15976,53.8138947 1702.79772,52.9940348 1705.90632,51.5567066 C1771.91961,20.2695288 1845.32251,2.02696563 1922.78396,0.159174895 C1926.74446,0.0542051119 1930.72647,-8.10125806e-16 1934.72716,0 C1934.92794,4.07750875e-17 1935.12867,0.000136522155 1935.32935,0.000409131566 C1935.55288,0.00013639637 1935.77643,0 1936,0 C2233.00647,0 2473.77778,240.707124 2473.77778,537.634409 C2473.77778,834.561693 2233.00647,1075.26882 1936,1075.26882 C1638.99353,1075.26882 1398.22222,834.561693 1398.22222,537.634409 C1398.22222,324.886114 1521.82741,140.999662 1701.15973,53.8350152 Z M1701.15976,102.462505 C1546.53614,186.036383 1441.49901,349.572298 1441.49901,537.634409 C1441.49901,810.666953 1662.89465,1032.00356 1936,1032.00356 C2209.10535,1032.00356 2430.50099,810.666953 2430.50099,537.634409 C2430.50099,348.542061 2324.30988,184.245361 2168.29461,101.096215 L2168.29454,772.412038 L1934.72715,536.619595 L1701.15976,772.412038 L1701.15976,102.462505 Z" id="path-3"></path>
        <filter x="-2.6%" y="-1.9%" width="105.2%" height="105.2%" filterUnits="objectBoundingBox" id="filter-4">
            <feOffset dx="0" dy="8" in="SourceAlpha" result="shadowOffsetOuter1"></feOffset>
            <feGaussianBlur stdDeviation="8" in="shadowOffsetOuter1" result="shadowBlurOuter1"></feGaussianBlur>
            <feColorMatrix values="0 0 0 0 0   0 0 0 0 0   0 0 0 0 0  0 0 0 0.5 0" type="matrix" in="shadowBlurOuter1"></feColorMatrix>
        </filter>
    </defs>
    <g id="Page-1" stroke="none" stroke-width="1" fill="none" fill-rule="evenodd">
        <g id="light_alexandria_bookmark_and_wordmark_2">
            <g id="Group" transform="translate(16.000000, 8.000000)">
                <g id="1_alexandria_wordmark_dark_900X85-Copy-2">
                    <use fill="black" fill-opacity="1" filter="url(#filter-2)" xlink:href="#path-1"></use>
                    <use fill="#FFFFFF" fill-rule="evenodd" xlink:href="#path-1"></use>
                </g>
                <g id="4_alexandria_bookmark_logo_dark_250X250-Copy-2">
                    <use fill="black" fill-opacity="1" filter="url(#filter-4)" xlink:href="#path-3"></use>
                    <use fill="" fill-rule="evenodd" xlink:href="#path-3"></use>
                </g>
            </g>
        </g>
    </g>
</svg>