<?xml version="1.0" encoding="UTF-8"?>
<svg width="4860px" height="657px" viewBox="0 0 4860 657" version="1.1" xmlns="http://www.w3.org/2000/svg" xmlns:xlink="http://www.w3.org/1999/xlink">
    <!-- Generator: Sketch 48.1 (47250) - http://www.bohemiancoding.com/sketch -->
    <title>light_alexandria_bookmark_and_wordmark_1</title>
    <desc>Created with Sketch.</desc>
    <defs>
        <path d="M4270.69601,126 L4307.08316,126 L4307.08316,508.5 L4270.69601,508.5 L4270.69601,126 L4270.69601,126 Z M3972.96052,327.038785 L4082.6345,508.5 L4123.98354,508.5 L4010.41152,324.81356 C4021.07044,323.372874 4032.28051,320.851714 4044.04206,317.25 C4055.80362,313.648286 4066.55428,308.155757 4076.29431,300.772246 C4086.03437,293.388735 4094.12032,283.754297 4100.55241,271.868644 C4106.98453,259.982991 4110.20053,244.856024 4110.20053,226.487288 C4110.20053,209.919409 4107.44396,195.872939 4101.93072,184.347458 C4096.4175,172.821976 4089.43416,163.27758 4080.98054,155.713983 C4072.52692,148.150386 4062.9708,142.387732 4052.31187,138.425847 C4041.65295,134.463963 4031.17798,131.582636 4020.8866,129.78178 C4010.59523,127.980923 4001.03911,126.900426 3992.21794,126.540254 C3983.39678,126.180083 3976.41345,126 3971.26776,126 L3868.72215,126 L3868.72215,508.5 L3905.1093,508.5 L3905.1093,326.974577 L3905.13676,326.974577 L3905.13676,294.559322 L3905.1093,294.559322 L3905.1093,158.415254 L3982.29417,158.415254 C4001.40671,158.415254 4016.93542,160.756332 4028.88075,165.438559 C4040.82608,170.120786 4050.10656,175.883441 4056.72244,182.726695 C4063.33832,189.569949 4067.84073,196.95335 4070.22979,204.877119 C4072.61887,212.800887 4073.81337,220.004205 4073.81337,226.487288 C4073.81337,232.970372 4072.61887,240.173689 4070.22979,248.097458 C4067.84073,256.021226 4063.33832,263.404627 4056.72244,270.247881 C4050.10656,277.091137 4040.82608,282.853791 4028.88075,287.536017 C4016.93542,292.218244 4001.40671,294.559322 3982.29417,294.559322 L3972.96052,294.559322 L3972.96052,327.038785 L3972.96052,327.038785 Z M3380.19097,126 L3500.93017,126 C3534.74465,126 3563.41303,130.051866 3586.93616,138.15572 C3610.45928,146.259574 3630.03097,156.614344 3645.6518,169.220339 C3661.27262,181.826334 3673.58533,195.782763 3682.59026,211.090042 C3691.59521,226.397322 3698.21099,241.074083 3702.43781,255.120763 C3706.66461,269.167444 3709.32932,281.863291 3710.43195,293.208687 C3711.53459,304.554082 3712.08591,312.567773 3712.08591,317.25 C3712.08591,321.932226 3711.53459,329.945918 3710.43195,341.291313 C3709.32932,352.636709 3706.66461,365.332558 3702.43781,379.379237 C3698.21099,393.425917 3691.59521,408.102678 3682.59026,423.409958 C3673.58533,438.717239 3661.27262,452.673665 3645.6518,465.279661 C3630.03097,477.885658 3610.45928,488.240425 3586.93616,496.34428 C3563.41303,504.448134 3534.74465,508.5 3500.93017,508.5 L3380.19097,508.5 L3380.19097,126 L3380.19097,126 Z M3416.57813,476.084746 L3491.55772,476.084746 C3517.28614,476.084746 3541.36022,472.933295 3563.7807,466.630297 C3586.20118,460.327299 3605.68098,450.692863 3622.22067,437.726696 C3638.76036,424.760528 3651.80817,408.282939 3661.36442,388.293432 C3670.92071,368.303926 3675.69876,344.623018 3675.69876,317.25 C3675.69876,289.876982 3670.92071,266.196075 3661.36442,246.206568 C3651.80817,226.217061 3638.76036,209.739472 3622.22067,196.773305 C3605.68098,183.807139 3586.20118,174.172701 3563.7807,167.869703 C3541.36022,161.566706 3517.28614,158.415254 3491.55772,158.415254 L3416.57813,158.415254 L3416.57813,476.084746 L3416.57813,476.084746 Z M2881.18471,126 L2928.04696,126 L3165.66609,460.957628 L3166.76873,460.957628 L3166.76873,126 L3203.15588,126 L3203.15588,508.5 L3156.29364,508.5 L2918.67451,173.542373 L2917.57187,173.542373 L2917.57187,508.5 L2881.18471,508.5 L2881.18471,126 L2881.18471,126 Z M2710.27018,508.5 L2749.90922,508.5 L2585.61571,126 L2548.12592,126 L2377.76788,508.5 L2415.27588,508.5 L2565.29226,165.403918 L2710.27018,508.5 L2710.27018,508.5 Z M2110.31623,307.525423 L1976.89667,126 L2019.89967,126 L2132.36904,281.593221 L2243.18447,126 L2286.73878,126 L2154.42186,307.525423 L2299.41915,508.5 L2254.21087,508.5 L2130.71508,335.618644 L2007.21929,508.5 L1963.66497,508.5 L2110.31623,307.525423 L2110.31623,307.525423 Z M1651.72488,126 L1853.33965,126 L1853.33965,158.415254 L1651.72488,158.415254 L1651.72488,126 L1651.72488,126 Z M1840.65929,294.559322 L1840.65929,326.974577 L1651.72488,326.974577 L1651.72488,294.559322 L1840.65929,294.559322 Z M1651.72488,476.084746 L1862.16078,476.084746 L1862.16078,508.5 L1651.72488,508.5 L1651.72488,476.084746 L1651.72488,476.084746 Z M1263.91683,126 L1300.30398,126 L1300.30398,476.084746 L1482.23974,476.084746 L1482.23974,508.5 L1263.91683,508.5 L1263.91683,126 L1263.91683,126 Z M1132.64133,508.5 L968.347824,126 L930.858031,126 L760.5,508.5 L798.541114,508.5 L842.646753,406.932204 L918.273722,233.279413 L947.948967,164.898305 L1036.16024,374.516949 L1092.05573,508.5 L1132.64133,508.5 Z M4770.42932,508.5 L4810.5,508.5 L4646.2065,126 L4608.71671,126 L4438.35867,508.5 L4476.39979,508.5 L4520.50542,406.932204 L4520.93985,406.932204 L4625.88069,165.742182 L4770.42932,508.5 L4770.42932,508.5 Z" id="path-1"></path>
        <filter x="-0.9%" y="-9.4%" width="102.2%" height="123.5%" filterUnits="objectBoundingBox" id="filter-2">
            <feOffset dx="9" dy="9" in="SourceAlpha" result="shadowOffsetOuter1"></feOffset>
            <feGaussianBlur stdDeviation="13.5" in="shadowOffsetOuter1" result="shadowBlurOuter1"></feGaussianBlur>
            <feColorMatrix values="0 0 0 0 0   0 0 0 0 0   0 0 0 0 0  0 0 0 0.5 0" type="matrix" in="shadowBlurOuter1"></feColorMatrix>
        </filter>
        <path d="M316.046342,0.00170098047 C316.361919,0.000568606818 316.677697,-6.33716204e-17 316.993674,0 C322.909241,1.18986469e-15 328.755469,0.209137014 334.505853,0.594083365 C499.390326,10.6672824 630,147.580879 630,315 C630,488.969696 488.969696,630 315,630 C141.030304,630 0,488.969696 0,315 C0,141.030304 141.030304,0 315,0 C315.348913,0 315.697694,0.000567284156 316.046342,0.00170098046 Z M179.430326,68.7188993 C92.6837029,116.571901 33.9230769,208.923811 33.9230769,315 C33.9230769,470.234498 159.765502,596.076923 315,596.076923 C470.234498,596.076923 596.076923,470.234498 596.076923,315 C596.076923,210.557257 539.11205,119.419373 454.557035,70.9610785 L454.556962,450.56962 L316.993671,313.02527 L179.43038,450.56962 L179.43038,68.7188699 Z" id="path-3"></path>
        <filter x="-4.0%" y="-2.6%" width="108.1%" height="108.1%" filterUnits="objectBoundingBox" id="filter-4">
            <feOffset dx="0" dy="9" in="SourceAlpha" result="shadowOffsetOuter1"></feOffset>
            <feGaussianBlur stdDeviation="7" in="shadowOffsetOuter1" result="shadowBlurOuter1"></feGaussianBlur>
            <feColorMatrix values="0 0 0 0 0   0 0 0 0 0   0 0 0 0 0  0 0 0 0.5 0" type="matrix" in="shadowBlurOuter1"></feColorMatrix>
        </filter>
    </defs>
    <g id="Page-1" stroke="none" stroke-width="1" fill="none" fill-rule="evenodd">
        <g id="light_alexandria_bookmark_and_wordmark_1">
            <g id="alexandria_logo_and_wordmark_dark_1069X140" transform="translate(13.500000, 4.500000)">
                <g id="Group-4">
                    <g id="1_alexandria_wordmark_dark_900X85-Copy">
                        <use fill="black" fill-opacity="1" filter="url(#filter-2)" xlink:href="#path-1"></use>
                        <use fill="#FFFFFF" fill-rule="evenodd" xlink:href="#path-1"></use>
                    </g>
                    <g id="4_alexandria_bookmark_logo_dark_250X250-Copy">
                        <use fill="black" fill-opacity="1" filter="url(#filter-4)" xlink:href="#path-3"></use>
                        <use fill="" fill-rule="evenodd" xlink:href="#path-3"></use>
                    </g>
                </g>
            </g>
        </g>
    </g>
</svg>